<svg width="90" height="90" viewBox="0 0 90 90" fill="none" xmlns="http://www.w3.org/2000/svg">
<g clip-path="url(#clip0_1_146)">
<path d="M88.2 50.3172V39.5172L75.3462 37.4166C74.5848 34.3728 73.3896 31.5108 71.8146 28.89L79.3062 18.2124L71.6688 10.5786L61.128 18.1566C58.5 16.5654 55.62 15.3522 52.5546 14.589L50.3136 1.7982H39.5136L37.4328 14.5476C34.3656 15.3 31.4694 16.497 28.8342 18.081L18.324 10.5714L10.6866 18.2052L18.0792 28.7784C16.4808 31.4244 15.2658 34.317 14.4936 37.404L1.8 39.5172V50.3172L14.4792 52.5654C15.2442 55.6452 16.461 58.5378 18.0648 61.1874L10.5714 71.6688L18.2052 79.3098L28.791 71.8956C31.4334 73.4832 34.3224 74.6892 37.3896 75.447L39.5136 88.2036H50.3136L52.5834 75.4146C55.6344 74.6406 58.518 73.4256 61.1352 71.8326L71.7948 79.3116L79.4304 71.6706L71.8218 61.1046C73.3968 58.4838 74.592 55.6182 75.3462 52.5744L88.2 50.3172ZM45 59.4C37.0476 59.4 30.6 52.9524 30.6 45C30.6 37.0476 37.0476 30.6 45 30.6C52.9524 30.6 59.4 37.0476 59.4 45C59.4 52.9524 52.9524 59.4 45 59.4Z" stroke="#622A65" stroke-width="2" stroke-miterlimit="10" stroke-linecap="round"/>
</g>
<defs>
<clipPath id="clip0_1_146">
<rect width="90" height="90" fill="white"/>
</clipPath>
</defs>
</svg>
