<svg width="76" height="76" viewBox="0 0 76 76" fill="none" xmlns="http://www.w3.org/2000/svg">
<g clip-path="url(#clip0_1_280)">
<path d="M67.6242 13.1258L54.9575 0.459163C54.8096 0.312417 54.6341 0.196319 54.4412 0.117525C54.2483 0.0387309 54.0417 -0.0012088 53.8333 -4.05329e-06H12.6667C11.4069 -4.05329e-06 10.1987 0.500441 9.30791 1.39124C8.41712 2.28204 7.91667 3.49022 7.91667 4.75V71.25C7.91667 72.5098 8.41712 73.7179 9.30791 74.6087C10.1987 75.4995 11.4069 76 12.6667 76H63.3333C64.5931 76 65.8013 75.4995 66.6921 74.6087C67.5829 73.7179 68.0833 72.5098 68.0833 71.25V14.25C68.0845 14.0416 68.0446 13.8351 67.9658 13.6421C67.887 13.4492 67.7709 13.2738 67.6242 13.1258ZM55.4167 5.39916L62.6842 12.6667H57C56.5801 12.6667 56.1774 12.4998 55.8804 12.2029C55.5835 11.906 55.4167 11.5033 55.4167 11.0833V5.39916ZM64.9167 71.25C64.9167 71.6699 64.7499 72.0726 64.4529 72.3696C64.156 72.6665 63.7533 72.8333 63.3333 72.8333H12.6667C12.2467 72.8333 11.844 72.6665 11.5471 72.3696C11.2502 72.0726 11.0833 71.6699 11.0833 71.25V4.75C11.0833 4.33007 11.2502 3.92734 11.5471 3.63041C11.844 3.33348 12.2467 3.16666 12.6667 3.16666H52.25V11.0833C52.25 12.3431 52.7505 13.5513 53.6413 14.4421C54.5321 15.3329 55.7402 15.8333 57 15.8333H64.9167V71.25Z" fill="#622A65"/>
<path d="M19 28.5C18.1602 28.5 17.3547 28.8336 16.7608 29.4275C16.167 30.0214 15.8333 30.8268 15.8333 31.6667V63.3333C15.8333 64.1732 16.167 64.9786 16.7608 65.5725C17.3547 66.1664 18.1602 66.5 19 66.5H57C57.8399 66.5 58.6453 66.1664 59.2392 65.5725C59.833 64.9786 60.1667 64.1732 60.1667 63.3333V31.6667C60.1667 30.8268 59.833 30.0214 59.2392 29.4275C58.6453 28.8336 57.8399 28.5 57 28.5H19ZM19 63.3333V62.3833L33.25 48.1333L48.4342 63.3333H19ZM57 63.3333H52.8992L43.4942 53.9283L49.1783 48.2442L57 56.0658V63.3333ZM57 51.6008L50.3025 44.9033C50.0059 44.6084 49.6046 44.4429 49.1863 44.4429C48.768 44.4429 48.3667 44.6084 48.07 44.9033L41.2775 51.6958L34.3267 44.745C33.2025 43.7158 33.0758 43.8583 29.6558 47.2625L19 57.9025V31.6667H57V51.6008Z" fill="#622A65"/>
</g>
<defs>
<clipPath id="clip0_1_280">
<rect width="76" height="76" fill="white"/>
</clipPath>
</defs>
</svg>
