<svg width="91" height="91" viewBox="0 0 91 91" fill="none" xmlns="http://www.w3.org/2000/svg">
<path d="M62.8118 7.79483H25.3785C20.5747 7.79483 16.5867 11.6922 16.5867 16.496V76.498C16.5867 81.3018 20.4841 85.1992 25.3785 85.1992H62.8118C67.6155 85.1992 71.6036 81.3018 71.6036 76.498V16.496C71.6036 11.6922 67.7062 7.79483 62.8118 7.79483ZM68.8845 76.498C68.8845 79.8516 66.1653 82.4801 62.8118 82.4801H25.3785C22.0249 82.4801 19.3058 79.761 19.3058 76.498V16.496C19.3058 13.1424 22.0249 10.514 25.3785 10.514H62.8118C66.1653 10.514 68.8845 13.2331 68.8845 16.496V76.498Z" fill="#622A65"/>
<path d="M55.1982 16.4054H32.8108C32.0857 16.4054 31.4512 17.0399 31.4512 17.765C31.4512 18.4901 32.0857 19.1245 32.8108 19.1245H55.1982C55.9233 19.1245 56.5578 18.4901 56.5578 17.765C56.5578 17.0399 55.9233 16.4054 55.1982 16.4054Z" fill="#622A65"/>
<path d="M44.0498 68.3406C41.512 68.3406 39.5179 70.4253 39.5179 72.8725C39.5179 74.0508 39.9711 75.2291 40.8775 76.0448C41.6932 76.8606 42.8715 77.3137 44.0498 77.3137C46.5876 77.3137 48.5817 75.2291 48.5817 72.7819C48.5817 70.3347 46.5876 68.3406 44.0498 68.3406ZM44.1404 74.6853C43.6873 74.6853 43.2341 74.504 42.8715 74.1414C42.509 73.7789 42.3277 73.3257 42.3277 72.8725C42.3277 71.8755 43.1434 71.0598 44.1404 71.0598C45.1375 71.0598 45.9532 71.8755 45.9532 72.8725C45.9532 73.8695 45.1375 74.6853 44.1404 74.6853Z" fill="#622A65"/>
</svg>
