<svg width="82" height="82" viewBox="0 0 82 82" fill="none" xmlns="http://www.w3.org/2000/svg">
<path d="M19.2188 12.8125C19.9264 12.8125 20.5 12.2389 20.5 11.5312C20.5 10.8236 19.9264 10.25 19.2188 10.25C18.5111 10.25 17.9375 10.8236 17.9375 11.5312C17.9375 12.2389 18.5111 12.8125 19.2188 12.8125Z" fill="#622A65"/>
<path d="M14.0938 12.8125C14.8014 12.8125 15.375 12.2389 15.375 11.5312C15.375 10.8236 14.8014 10.25 14.0938 10.25C13.3861 10.25 12.8125 10.8236 12.8125 11.5312C12.8125 12.2389 13.3861 12.8125 14.0938 12.8125Z" fill="#622A65"/>
<path d="M8.96875 12.8125C9.67636 12.8125 10.25 12.2389 10.25 11.5312C10.25 10.8236 9.67636 10.25 8.96875 10.25C8.26114 10.25 7.6875 10.8236 7.6875 11.5312C7.6875 12.2389 8.26114 12.8125 8.96875 12.8125Z" fill="#622A65"/>
<path d="M78.1562 17.1576H3.84375C3.1365 17.1576 2.5625 16.7583 2.5625 16.2663C2.5625 15.7743 3.1365 15.375 3.84375 15.375H78.1562C78.8635 15.375 79.4375 15.7743 79.4375 16.2663C79.4375 16.7583 78.8635 17.1576 78.1562 17.1576Z" fill="#622A65"/>
<path d="M3.84375 56.375C3.1365 56.375 2.5625 55.801 2.5625 55.0938V8.96875C2.5625 6.84956 4.28706 5.125 6.40625 5.125H75.5938C77.7129 5.125 79.4375 6.84956 79.4375 8.96875V32.0312C79.4375 32.7385 78.8635 33.3125 78.1562 33.3125C77.449 33.3125 76.875 32.7385 76.875 32.0312V8.96875C76.875 8.26406 76.301 7.6875 75.5938 7.6875H6.40625C5.699 7.6875 5.125 8.26406 5.125 8.96875V55.0938C5.125 55.801 4.551 56.375 3.84375 56.375Z" fill="#622A65"/>
<path d="M56.375 79.4375H26.9062C26.199 79.4375 25.625 78.8635 25.625 78.1562C25.625 77.449 26.199 76.875 26.9062 76.875H29.4688C31.5879 76.875 33.3125 75.1504 33.3125 73.0312V70.4688C33.3125 69.7615 33.8865 69.1875 34.5938 69.1875C35.301 69.1875 35.875 69.7615 35.875 70.4688V73.0312C35.875 74.4739 35.3958 75.8039 34.5912 76.875H47.4088C46.6042 75.8039 46.125 74.4739 46.125 73.0312V65.3438C46.125 64.6365 46.699 64.0625 47.4062 64.0625C48.1135 64.0625 48.6875 64.6365 48.6875 65.3438V73.0312C48.6875 75.1504 50.4121 76.875 52.5312 76.875H56.375C57.0823 76.875 57.6562 77.449 57.6562 78.1562C57.6562 78.8635 57.0823 79.4375 56.375 79.4375Z" fill="#622A65"/>
<path d="M47.4062 66.625H6.40625C4.28706 66.625 2.5625 64.9004 2.5625 62.7812V55.0938C2.5625 54.3865 3.1365 53.8125 3.84375 53.8125H39.7188C40.426 53.8125 41 54.3865 41 55.0938C41 55.801 40.426 56.375 39.7188 56.375H5.125V62.7812C5.125 63.4859 5.699 64.0625 6.40625 64.0625H47.4062C48.1135 64.0625 48.6875 64.6365 48.6875 65.3438C48.6875 66.051 48.1135 66.625 47.4062 66.625Z" fill="#622A65"/>
<path d="M47.4062 35.0951H44.8438C44.1365 35.0951 43.5625 34.6958 43.5625 34.2038C43.5625 33.7118 44.1365 33.3125 44.8438 33.3125H47.4062C48.1135 33.3125 48.6875 33.7118 48.6875 34.2038C48.6875 34.6958 48.1135 35.0951 47.4062 35.0951Z" fill="#622A65"/>
<path d="M70.4688 24.8451H44.8438C44.1365 24.8451 43.5625 24.4458 43.5625 23.9538C43.5625 23.4618 44.1365 23.0625 44.8438 23.0625H70.4688C71.176 23.0625 71.75 23.4618 71.75 23.9538C71.75 24.4458 71.176 24.8451 70.4688 24.8451Z" fill="#622A65"/>
<path d="M70.4688 29.9701H44.8438C44.1365 29.9701 43.5625 29.5708 43.5625 29.0788C43.5625 28.5868 44.1365 28.1875 44.8438 28.1875H70.4688C71.176 28.1875 71.75 28.5868 71.75 29.0788C71.75 29.5708 71.176 29.9701 70.4688 29.9701Z" fill="#622A65"/>
<path d="M19.2188 35.0951H11.5312C10.824 35.0951 10.25 34.6958 10.25 34.2038C10.25 33.7118 10.824 33.3125 11.5312 33.3125H19.2188C19.926 33.3125 20.5 33.7118 20.5 34.2038C20.5 34.6958 19.926 35.0951 19.2188 35.0951Z" fill="#622A65"/>
<path d="M37.1562 24.8451H11.5312C10.824 24.8451 10.25 24.4458 10.25 23.9538C10.25 23.4618 10.824 23.0625 11.5312 23.0625H37.1562C37.8635 23.0625 38.4375 23.4618 38.4375 23.9538C38.4375 24.4458 37.8635 24.8451 37.1562 24.8451Z" fill="#622A65"/>
<path d="M37.1562 29.9701H11.5312C10.824 29.9701 10.25 29.5708 10.25 29.0788C10.25 28.5868 10.824 28.1875 11.5312 28.1875H37.1562C37.8635 28.1875 38.4375 28.5868 38.4375 29.0788C38.4375 29.5708 37.8635 29.9701 37.1562 29.9701Z" fill="#622A65"/>
<path d="M61.5 69.1875C51.6088 69.1875 43.5625 61.1387 43.5625 51.25C43.5625 41.3613 51.6088 33.3125 61.5 33.3125C64.9645 33.3125 68.3239 34.3016 71.217 36.1697C71.8115 36.5541 71.9806 37.3459 71.5963 37.9404C71.2119 38.5297 70.4226 38.7091 69.8256 38.3196C67.3502 36.7206 64.4699 35.875 61.5 35.875C53.0207 35.875 46.125 42.7707 46.125 51.25C46.125 59.7293 53.0207 66.625 61.5 66.625C69.9793 66.625 76.875 59.7293 76.875 51.25C76.875 49.6049 76.6162 47.9879 76.1088 46.4402C75.8884 45.7662 76.2549 45.0436 76.9263 44.8233C77.5976 44.5978 78.3228 44.9693 78.5432 45.6381C79.1351 47.4472 79.4375 49.3333 79.4375 51.25C79.4375 61.1387 71.3913 69.1875 61.5 69.1875Z" fill="#622A65"/>
<path d="M60.2188 58.1662C60.2085 58.1662 60.1983 58.1662 60.188 58.1662C59.8164 58.1559 59.4705 57.9894 59.2322 57.7049L52.8259 50.0174C52.3749 49.4716 52.4493 48.6644 52.9899 48.2109C53.5358 47.7599 54.3404 47.8342 54.7965 48.3749L60.2623 54.9374L76.1882 37.3459C76.67 36.8231 77.4797 36.7924 77.9974 37.2664C78.5176 37.7456 78.5534 38.5554 78.0743 39.0781L61.1618 57.7511C60.9183 58.0176 60.5801 58.1662 60.2188 58.1662Z" fill="#622A65"/>
</svg>
