<svg width="96" height="96" viewBox="0 0 96 96" fill="none" xmlns="http://www.w3.org/2000/svg">
<path d="M47.6938 92.1456C72.0317 92.1456 91.8317 72.3456 91.8317 48.0067C91.8317 23.6678 72.0307 3.8688 47.6938 3.8688C23.3549 3.8688 3.55392 23.6688 3.55392 48.0077C3.55392 72.3466 23.3549 92.1456 47.6938 92.1456ZM47.6938 5.7888C70.9728 5.7888 89.9117 24.7277 89.9117 48.0077C89.9117 71.2877 70.9728 90.2256 47.6938 90.2256C24.4138 90.2256 5.47392 71.2867 5.47392 48.0067C5.47392 24.7267 24.4138 5.7888 47.6938 5.7888Z" fill="#622A65"/>
<path d="M39.817 43.584H47.5248C49.5235 43.584 51.1488 41.9635 51.1488 39.9725C51.1488 37.9834 49.5235 36.3648 47.5248 36.3648H39.817C37.8202 36.3648 36.1958 37.9834 36.1958 39.9725C36.1949 41.9635 37.8202 43.584 39.817 43.584ZM39.817 38.2848H47.5248C48.4646 38.2848 49.2288 39.0422 49.2288 39.9725C49.2288 40.9046 48.4637 41.664 47.5248 41.664H39.817C38.8781 41.664 38.1158 40.9046 38.1158 39.9725C38.1149 39.0422 38.8781 38.2848 39.817 38.2848Z" fill="#622A65"/>
<path d="M39.817 59.425H55.4794C57.4704 59.425 59.0909 57.8112 59.0909 55.8288C59.0909 53.8454 57.4704 52.2307 55.4794 52.2307H39.817C37.8202 52.2307 36.1958 53.8445 36.1958 55.8288C36.1949 57.8122 37.8202 59.425 39.817 59.425ZM39.817 54.1517H55.4794C56.4125 54.1517 57.1709 54.9043 57.1709 55.8298C57.1709 56.7379 56.3962 57.5059 55.4794 57.5059H39.817C38.8944 57.5059 38.1158 56.7379 38.1158 55.8298C38.1149 54.9043 38.8781 54.1517 39.817 54.1517Z" fill="#622A65"/>
<path d="M39.6403 70.8317H55.6147C63.7661 70.8317 70.4352 64.1952 70.4803 56.04L70.5638 44.8397C70.5648 44.7725 70.5571 44.7053 70.5437 44.639L70.4179 44.0294C70.4016 43.9526 70.3766 43.8778 70.3421 43.8067L69.9725 43.0406C69.9091 42.9062 69.8131 42.7891 69.696 42.6989L69.0797 42.2218C68.4998 41.7667 67.5974 41.7235 66.0528 41.687C65.1542 41.6659 63.4819 41.6256 63.1363 41.3117C62.6678 40.8826 62.5267 39.8314 62.3482 38.4998L62.3002 38.1456C61.919 35.2003 61.6493 34.5485 61.1674 33.5626L60.9706 33.1498C58.8835 28.7376 53.3789 25.5091 49.4736 25.0483C49.4362 25.0445 49.3987 25.0416 49.3613 25.0416H39.6403C31.4438 25.0416 24.7757 31.6906 24.7757 39.8621V56.0323C24.7757 64.1923 31.4438 70.8317 39.6403 70.8317ZM26.6957 39.8621C26.6957 32.7485 32.5027 26.9616 39.6403 26.9616H49.3037C52.7107 27.3888 57.4954 30.2928 59.232 33.9629C59.3069 34.1251 59.376 34.2682 59.4432 34.4045C59.8147 35.1638 60.0374 35.6227 60.3974 38.3981L60.4464 38.7542C60.6758 40.4717 60.8582 41.8272 61.8432 42.7296C62.7226 43.5274 64.392 43.5667 66.0077 43.6051C66.6778 43.6214 67.6915 43.6454 67.9008 43.7347L68.3424 44.0765L68.5622 44.5325L68.6429 44.9261L68.5603 56.0266C68.521 63.1306 62.713 68.9107 55.6147 68.9107H39.6403C32.5018 68.9107 26.6957 63.1334 26.6957 56.0314V39.8621Z" fill="#622A65"/>
</svg>
