<svg width="119" height="70" viewBox="0 0 119 70" fill="none" xmlns="http://www.w3.org/2000/svg">
<circle cx="2.5" cy="2.5" r="2.5" transform="matrix(1 0 0 -1 36.8901 5)" fill="#091164" fill-opacity="0.5"/>
<circle cx="2.5" cy="2.5" r="2.5" transform="matrix(1 0 0 -1 17.7073 5)" fill="#091164" fill-opacity="0.5"/>
<circle cx="2.5" cy="2.5" r="2.5" transform="matrix(1 0 0 -1 0 5)" fill="#091164" fill-opacity="0.5"/>
<circle cx="2.5" cy="2.5" r="2.5" transform="matrix(1 0 0 -1 56.0732 5)" fill="#091164" fill-opacity="0.5"/>
<circle cx="2.5" cy="2.5" r="2.5" transform="matrix(1 0 0 -1 75.2561 5)" fill="#091164" fill-opacity="0.5"/>
<circle cx="2.5" cy="2.5" r="2.5" transform="matrix(1 0 0 -1 94.439 5)" fill="#091164" fill-opacity="0.5"/>
<circle cx="2.5" cy="2.5" r="2.5" transform="matrix(1 0 0 -1 113.622 5)" fill="#091164" fill-opacity="0.5"/>
<circle cx="2.5" cy="2.5" r="2.5" transform="matrix(1 0 0 -1 36.8901 21.2317)" fill="#091164" fill-opacity="0.5"/>
<circle cx="2.5" cy="2.5" r="2.5" transform="matrix(1 0 0 -1 17.7073 21.2317)" fill="#091164" fill-opacity="0.5"/>
<circle cx="2.5" cy="2.5" r="2.5" transform="matrix(1 0 0 -1 0 21.2317)" fill="#091164" fill-opacity="0.5"/>
<circle cx="2.5" cy="2.5" r="2.5" transform="matrix(1 0 0 -1 56.0732 21.2317)" fill="#091164" fill-opacity="0.5"/>
<circle cx="2.5" cy="2.5" r="2.5" transform="matrix(1 0 0 -1 75.2561 21.2317)" fill="#091164" fill-opacity="0.5"/>
<circle cx="2.5" cy="2.5" r="2.5" transform="matrix(1 0 0 -1 94.439 21.2317)" fill="#091164" fill-opacity="0.5"/>
<circle cx="2.5" cy="2.5" r="2.5" transform="matrix(1 0 0 -1 113.622 21.2317)" fill="#091164" fill-opacity="0.5"/>
<circle cx="2.5" cy="2.5" r="2.5" transform="matrix(1 0 0 -1 36.8901 37.4634)" fill="#091164" fill-opacity="0.5"/>
<circle cx="2.5" cy="2.5" r="2.5" transform="matrix(1 0 0 -1 17.7073 37.4634)" fill="#091164" fill-opacity="0.5"/>
<circle cx="2.5" cy="2.5" r="2.5" transform="matrix(1 0 0 -1 0 37.4634)" fill="#091164" fill-opacity="0.5"/>
<circle cx="2.5" cy="2.5" r="2.5" transform="matrix(1 0 0 -1 56.0732 37.4634)" fill="#091164" fill-opacity="0.5"/>
<circle cx="2.5" cy="2.5" r="2.5" transform="matrix(1 0 0 -1 75.2561 37.4634)" fill="#091164" fill-opacity="0.5"/>
<circle cx="2.5" cy="2.5" r="2.5" transform="matrix(1 0 0 -1 94.439 37.4634)" fill="#091164" fill-opacity="0.5"/>
<circle cx="2.5" cy="2.5" r="2.5" transform="matrix(1 0 0 -1 113.622 37.4634)" fill="#091164" fill-opacity="0.5"/>
<circle cx="2.5" cy="2.5" r="2.5" transform="matrix(1 0 0 -1 36.8901 53.6951)" fill="#091164" fill-opacity="0.5"/>
<circle cx="2.5" cy="2.5" r="2.5" transform="matrix(1 0 0 -1 17.7073 53.6951)" fill="#091164" fill-opacity="0.5"/>
<circle cx="2.5" cy="2.5" r="2.5" transform="matrix(1 0 0 -1 0 53.6951)" fill="#091164" fill-opacity="0.5"/>
<circle cx="2.5" cy="2.5" r="2.5" transform="matrix(1 0 0 -1 56.0732 53.6951)" fill="#091164" fill-opacity="0.5"/>
<circle cx="2.5" cy="2.5" r="2.5" transform="matrix(1 0 0 -1 75.2561 53.6951)" fill="#091164" fill-opacity="0.5"/>
<circle cx="2.5" cy="2.5" r="2.5" transform="matrix(1 0 0 -1 94.439 53.6951)" fill="#091164" fill-opacity="0.5"/>
<circle cx="2.5" cy="2.5" r="2.5" transform="matrix(1 0 0 -1 113.622 53.6951)" fill="#091164" fill-opacity="0.5"/>
<circle cx="2.5" cy="2.5" r="2.5" transform="matrix(1 0 0 -1 36.8901 69.9268)" fill="#091164" fill-opacity="0.5"/>
<circle cx="2.5" cy="2.5" r="2.5" transform="matrix(1 0 0 -1 17.7073 69.9268)" fill="#091164" fill-opacity="0.5"/>
<circle cx="2.5" cy="2.5" r="2.5" transform="matrix(1 0 0 -1 0 69.9268)" fill="#091164" fill-opacity="0.5"/>
<circle cx="2.5" cy="2.5" r="2.5" transform="matrix(1 0 0 -1 56.0732 69.9268)" fill="#091164" fill-opacity="0.5"/>
<circle cx="2.5" cy="2.5" r="2.5" transform="matrix(1 0 0 -1 75.2561 69.9268)" fill="#091164" fill-opacity="0.5"/>
<circle cx="2.5" cy="2.5" r="2.5" transform="matrix(1 0 0 -1 94.439 69.9268)" fill="#091164" fill-opacity="0.5"/>
<circle cx="2.5" cy="2.5" r="2.5" transform="matrix(1 0 0 -1 113.622 69.9268)" fill="#091164" fill-opacity="0.5"/>
</svg>
