<svg width="143" height="82" viewBox="0 0 143 82" fill="none" xmlns="http://www.w3.org/2000/svg">
<path fill-rule="evenodd" clip-rule="evenodd" d="M74.7621 24.253C71.3042 16.5309 64.4154 12.4107 56.4341 11.0732C47.4917 9.57519 37.1997 11.616 29.2049 15.7212C26.4796 17.2708 23.9155 19.0657 21.4964 21.1101C18.0062 24.0585 14.8235 27.4379 11.7784 31.0438C11.4714 31.3701 11.4534 31.8589 11.7379 32.134C12.0224 32.409 12.5025 32.3677 12.8114 32.0417C15.556 29.4264 18.3786 26.9917 21.342 24.8123C24.2816 22.6478 27.3454 20.7856 30.6165 19.3398C37.8684 15.7337 47.1493 14.0511 55.1977 15.4756C61.8126 16.6464 67.6057 19.9628 70.5465 26.2924C68.7866 27.2395 67.0893 28.3019 65.5019 29.5238C62.4274 31.8889 59.7491 34.8363 57.7601 38.6689C56.3641 41.3569 55.0735 45.3995 55.287 48.6437C55.4769 51.5271 56.7436 53.8341 59.5737 54.7303C65.2149 56.5164 69.7025 53.2956 72.6881 48.0056C76.053 42.043 77.2992 33.3583 76.1723 28.3585C77.9439 27.5862 79.7447 26.8945 81.5209 26.2256C88.8651 23.4614 96.7357 23.46 103.774 26.0722C110.304 28.4943 116.118 33.1621 120.164 39.9635C123.509 45.3798 124.647 51.9043 124.771 58.0809C124.857 62.378 124.386 66.4966 123.741 70.0803C123.154 73.3383 122.538 76.0956 121.598 78.1284C121.548 78.2094 121.568 78.3084 121.643 78.3497C121.717 78.3911 121.817 78.3583 121.867 78.2772C123.327 76.4136 124.903 73.7758 126.105 70.4608C127.456 66.7398 128.29 62.2916 128.509 57.6666C128.836 50.7535 127.503 43.4821 123.99 37.3242C119.491 29.7307 113.002 24.5308 105.727 21.8161C97.7362 18.835 88.7942 18.8538 80.4474 21.9804C78.5563 22.6878 76.6441 23.4288 74.7621 24.253ZM71.9219 30.4362C70.5277 31.2108 69.1832 32.0706 67.9166 33.048C65.4466 34.9539 63.2856 37.3192 61.6903 40.4037C60.8184 42.0903 59.97 44.4775 59.8074 46.6387C59.684 48.2685 59.8784 49.8455 61.3831 50.3232C64.6539 51.3651 67.1217 49.1718 68.8576 46.104C71.5267 41.3903 72.6596 34.602 71.9219 30.4362Z" fill="#111364"/>
<path fill-rule="evenodd" clip-rule="evenodd" d="M12.2955 30.5572C12.956 29.2265 13.6312 27.898 14.289 26.5581C15.0601 24.9848 15.8348 23.4123 16.5463 21.8127C18.363 17.723 19.9222 13.6353 21.5488 9.54418C21.7411 9.17483 21.6181 8.75216 21.2779 8.60017C20.9369 8.44799 20.5036 8.62482 20.3114 8.99418C18.2536 12.1227 16.1042 15.1559 14.0474 18.342C13.1737 19.6974 12.3156 21.0521 11.5252 22.4521C9.75537 25.5856 8.24017 28.8303 6.74824 32.0455C6.57166 32.44 6.34508 33.1264 6.32518 33.6892C6.30208 34.3194 6.45121 34.8659 6.73426 35.2703C7.00064 35.6526 7.45477 36.0953 8.31552 36.1636C8.70285 36.1941 9.53205 36.1028 10.6471 35.7367C14.3223 34.5294 23.0651 30.4814 24.8839 29.6841L28.3768 27.8882C28.5727 27.7708 28.8696 27.6392 29.1172 27.3754C29.4491 27.0232 29.8168 26.6271 29.9262 26.2955C30.0091 26.0435 29.6773 26.0254 29.8513 26.006C29.9845 25.9903 29.77 25.8135 29.7602 25.9065C29.7239 26.2556 29.5414 25.7254 29.4461 25.8816C29.2111 26.2695 29.3739 25.558 29.0624 25.6928C28.9491 25.741 29.1015 25.5522 28.9804 25.5748C28.8099 25.607 29.1112 25.3931 28.9202 25.3568C28.8033 25.3349 29.0772 25.2436 28.9405 25.1773C28.8387 25.1274 29.1881 25.1591 29.0469 25.0485C28.918 24.9471 29.1904 25.0828 29.1904 25.0828C29.1904 25.0828 29.1143 24.9499 29.3755 25.2379C29.3242 25.3141 29.3392 25.4106 29.4075 25.4541C29.4767 25.4977 29.5742 25.4708 29.6247 25.3944C30.5785 25.6688 29.7517 25.3829 30.1439 25.3149C30.2828 25.2908 30.099 25.2128 30.1963 25.1631C30.6789 24.9162 29.9145 25.0296 30.0605 24.678C30.1192 24.5364 29.9035 24.7187 29.9256 24.5656C29.964 24.2971 29.7114 24.7958 29.5631 24.4692C29.4859 24.2993 29.4802 24.7039 29.2041 24.4721C29.0003 24.3009 29.2355 24.3547 28.7217 24.3283C28.3562 24.3103 27.6841 24.7421 27.3528 24.7978L23.8151 26.0576C22.3616 26.625 16.4007 29.09 12.2955 30.5572Z" fill="#111364"/>
</svg>
