<svg width="160" height="142" viewBox="0 0 160 142" fill="none" xmlns="http://www.w3.org/2000/svg">
<path fill-rule="evenodd" clip-rule="evenodd" d="M66.4194 81.1696C56.6324 82.5248 47.6756 79.5306 40.5143 74.3245C32.4911 68.4912 26.7803 59.8744 24.7026 51.9069C24.1348 49.115 23.916 46.3179 24.0381 43.5015C24.2131 39.4388 25.0191 35.3848 26.139 31.3177C26.2171 30.9265 26.6612 30.6661 27.1293 30.7367C27.5973 30.8074 27.9141 31.1821 27.8378 31.5745C27.4225 34.9194 27.2338 38.2304 27.3885 41.5163C27.5394 44.7769 28.0652 47.9763 29.1342 51.1179C31.129 58.2856 36.4264 65.9762 43.7187 71.1877C49.7124 75.4711 57.1056 78.0641 65.2066 77.0317C64.7899 75.2559 64.5274 73.4679 64.4955 71.6803C64.4324 68.2189 65.2076 64.755 67.3217 61.3516C68.8036 58.9639 71.6313 55.9691 74.8255 54.4865C77.6646 53.1688 80.7615 52.9361 83.6957 54.5688C89.5442 57.8235 89.8528 62.7591 87.1127 67.6336C84.0242 73.1278 76.8192 78.4365 71.3058 80.1335C71.8947 81.8296 72.5808 83.5064 73.2699 85.1536C76.121 91.9637 81.9474 97.765 89.6038 101.632C96.7054 105.22 105.378 107.145 114.739 106.689C122.285 106.416 129.234 103.956 135.106 100.925C139.191 98.8168 142.697 96.3874 145.573 94.1003C148.188 92.0211 150.312 90.1727 151.518 88.4529C151.557 88.375 151.665 88.3397 151.758 88.3735C151.852 88.4074 151.895 88.4977 151.857 88.5756C151.194 90.5938 149.892 93.0883 147.68 95.6507C145.198 98.527 141.653 101.391 137.486 103.89C131.259 107.626 123.466 110.319 115.103 110.843C104.665 111.366 94.9939 109.212 87.0662 105.222C78.3599 100.84 71.7564 94.2406 68.5022 86.5085C67.7641 84.7572 67.0416 82.9733 66.4194 81.1696ZM70.103 75.9506C69.7956 74.5316 69.6048 73.106 69.5816 71.6784C69.5363 68.8945 70.1499 66.1062 71.8553 63.3711C72.7881 61.876 74.394 60.0439 76.2962 58.8316C77.73 57.9167 79.3498 57.2628 80.911 58.1303C84.3079 60.0141 84.0825 62.9417 82.4968 65.7718C80.0619 70.1219 74.5478 74.3884 70.103 75.9506Z" fill="#111364"/>
<path fill-rule="evenodd" clip-rule="evenodd" d="M28.2842 32.2501C27.4956 33.4615 26.7205 34.6831 25.9208 35.8974C24.9809 37.3221 24.0445 38.7492 23.0329 40.142C20.4446 43.7009 17.6592 47.0604 14.9227 50.4737C14.7107 50.8168 14.2032 50.9453 13.7921 50.7635C13.3801 50.5812 13.218 50.1542 13.43 49.811C14.8939 46.574 16.1941 43.3167 17.7151 40.0501C18.3631 38.6613 19.0224 37.285 19.7783 35.9369C21.4696 32.919 23.466 30.0386 25.4517 27.1916C25.7004 26.8472 26.1953 26.3102 26.7292 25.9977C27.3265 25.6471 27.9751 25.4734 28.5885 25.4779C29.1673 25.4812 29.9503 25.5972 30.6819 26.224C31.0109 26.5063 31.5623 27.1931 32.0663 28.2454C33.7269 31.7136 36.5296 40.5851 37.1564 42.407L38.1017 46.0457C38.1384 46.2586 38.2394 46.5568 38.1731 46.8868C38.0858 47.3284 37.9832 47.8208 37.7441 48.0802C37.5621 48.2771 37.2882 48.0311 37.4036 48.1754C37.4912 48.2862 37.1529 48.2144 37.2362 48.1577C37.5488 47.9454 36.8904 48.0848 36.9692 47.929C37.1663 47.5431 36.5976 48.0442 36.4885 47.7331C36.4481 47.6204 36.3815 47.8375 36.31 47.7323C36.2098 47.584 36.2336 47.929 36.0507 47.801C35.9391 47.7226 36.0615 47.9817 35.8912 47.9115C35.7639 47.8594 36.0648 48.1117 35.8477 48.0614C35.6491 48.0157 35.992 48.1538 35.992 48.1538C35.992 48.1538 35.8036 48.1654 36.2864 48.2145C36.3211 48.1347 36.4269 48.0954 36.5221 48.125C36.6181 48.1553 36.6672 48.2445 36.6316 48.3237C37.6362 48.9136 36.7185 48.4277 36.9551 48.7657C37.0389 48.8854 36.8207 48.785 36.8475 48.8862C36.9793 49.3883 36.4995 48.7397 36.2691 49.0377C36.1762 49.1577 36.1875 48.8954 36.0551 48.9933C35.8227 49.1646 36.1143 48.7067 35.681 48.7649C35.4555 48.7952 35.846 48.5771 35.4065 48.4869C35.082 48.4203 35.3162 48.5731 34.8935 48.1913C34.5936 47.9193 34.4959 47.1736 34.2943 46.889L32.7911 43.4989C32.2221 42.0798 30.0234 36.1868 28.2842 32.2501Z" fill="#111364"/>
</svg>
